<svg width="1086" height="451" viewBox="0 0 1086 451" fill="none" xmlns="http://www.w3.org/2000/svg">
<g opacity="0.5">
<path d="M1064 20.5C1064 31.8218 1054.82 41 1043.5 41C1032.18 41 1023 31.8218 1023 20.5C1023 9.17816 1032.18 0 1043.5 0C1054.82 0 1064 9.17816 1064 20.5Z" fill="#FFBDA7"/>
<path d="M1050 69.5C1050 76.9558 1043.96 83 1036.5 83C1029.04 83 1023 76.9558 1023 69.5C1023 62.0442 1029.04 56 1036.5 56C1043.96 56 1050 62.0442 1050 69.5Z" fill="#FFBDA7"/>
<path d="M1086 48C1086 54.0751 1081.08 59 1075 59C1068.92 59 1064 54.0751 1064 48C1064 41.9249 1068.92 37 1075 37C1081.08 37 1086 41.9249 1086 48Z" fill="#FFBDA7"/>
<path d="M22 430.5C22 419.178 31.1782 410 42.5 410C53.8218 410 63 419.178 63 430.5C63 441.822 53.8218 451 42.5 451C31.1782 451 22 441.822 22 430.5Z" fill="#FFBDA7"/>
<path d="M36 381.5C36 374.044 42.0442 368 49.5 368C56.9558 368 63 374.044 63 381.5C63 388.956 56.9558 395 49.5 395C42.0442 395 36 388.956 36 381.5Z" fill="#FFBDA7"/>
<path d="M0 403C-5.31105e-07 396.925 4.92487 392 11 392C17.0751 392 22 396.925 22 403C22 409.075 17.0751 414 11 414C4.92487 414 5.31105e-07 409.075 0 403Z" fill="#FFBDA7"/>
</g>
</svg>
