<svg width="93" height="23" viewBox="0 0 93 23" fill="none" xmlns="http://www.w3.org/2000/svg">
<path d="M10.56 7.4C10.3067 6.93333 9.94 6.58 9.46 6.34C8.99333 6.08667 8.44 5.96 7.8 5.96C6.69333 5.96 5.80667 6.32667 5.14 7.06C4.47333 7.78 4.14 8.74667 4.14 9.96C4.14 11.2533 4.48667 12.2667 5.18 13C5.88667 13.72 6.85333 14.08 8.08 14.08C8.92 14.08 9.62667 13.8667 10.2 13.44C10.7867 13.0133 11.2133 12.4 11.48 11.6H7.14V9.08H14.58V12.26C14.3267 13.1133 13.8933 13.9067 13.28 14.64C12.68 15.3733 11.9133 15.9667 10.98 16.42C10.0467 16.8733 8.99333 17.1 7.82 17.1C6.43333 17.1 5.19333 16.8 4.1 16.2C3.02 15.5867 2.17333 14.74 1.56 13.66C0.96 12.58 0.66 11.3467 0.66 9.96C0.66 8.57333 0.96 7.34 1.56 6.26C2.17333 5.16667 3.02 4.32 4.1 3.72C5.18 3.10667 6.41333 2.8 7.8 2.8C9.48 2.8 10.8933 3.20667 12.04 4.02C13.2 4.83333 13.9667 5.96 14.34 7.4H10.56ZM21.5544 17.16C20.461 17.16 19.4744 16.9267 18.5944 16.46C17.7277 15.9933 17.041 15.3267 16.5344 14.46C16.041 13.5933 15.7944 12.58 15.7944 11.42C15.7944 10.2733 16.0477 9.26667 16.5544 8.4C17.061 7.52 17.7544 6.84667 18.6344 6.38C19.5144 5.91333 20.501 5.68 21.5944 5.68C22.6877 5.68 23.6744 5.91333 24.5544 6.38C25.4344 6.84667 26.1277 7.52 26.6344 8.4C27.141 9.26667 27.3944 10.2733 27.3944 11.42C27.3944 12.5667 27.1344 13.58 26.6144 14.46C26.1077 15.3267 25.4077 15.9933 24.5144 16.46C23.6344 16.9267 22.6477 17.16 21.5544 17.16ZM21.5544 14.2C22.2077 14.2 22.761 13.96 23.2144 13.48C23.681 13 23.9144 12.3133 23.9144 11.42C23.9144 10.5267 23.6877 9.84 23.2344 9.36C22.7944 8.88 22.2477 8.64 21.5944 8.64C20.9277 8.64 20.3744 8.88 19.9344 9.36C19.4944 9.82667 19.2744 10.5133 19.2744 11.42C19.2744 12.3133 19.4877 13 19.9144 13.48C20.3544 13.96 20.901 14.2 21.5544 14.2ZM39.3088 2.96V5.7H35.5888V17H32.1688V5.7H28.4488V2.96H39.3088ZM44.4452 7.7C44.8452 7.08667 45.3452 6.60667 45.9452 6.26C46.5452 5.9 47.2118 5.72 47.9452 5.72V9.34H47.0052C46.1518 9.34 45.5118 9.52667 45.0852 9.9C44.6585 10.26 44.4452 10.9 44.4452 11.82V17H41.0252V5.84H44.4452V7.7ZM51.2998 4.68C50.6998 4.68 50.2065 4.50667 49.8198 4.16C49.4465 3.8 49.2598 3.36 49.2598 2.84C49.2598 2.30667 49.4465 1.86667 49.8198 1.52C50.2065 1.16 50.6998 0.979999 51.2998 0.979999C51.8865 0.979999 52.3665 1.16 52.7398 1.52C53.1265 1.86667 53.3198 2.30667 53.3198 2.84C53.3198 3.36 53.1265 3.8 52.7398 4.16C52.3665 4.50667 51.8865 4.68 51.2998 4.68ZM52.9998 5.84V17H49.5798V5.84H52.9998ZM65.9983 11.24C65.9983 11.56 65.9783 11.8933 65.9383 12.24H58.1983C58.2516 12.9333 58.4716 13.4667 58.8583 13.84C59.2583 14.2 59.7449 14.38 60.3183 14.38C61.1716 14.38 61.7649 14.02 62.0983 13.3H65.7383C65.5516 14.0333 65.2116 14.6933 64.7183 15.28C64.2383 15.8667 63.6316 16.3267 62.8983 16.66C62.1649 16.9933 61.3449 17.16 60.4383 17.16C59.3449 17.16 58.3716 16.9267 57.5183 16.46C56.6649 15.9933 55.9983 15.3267 55.5183 14.46C55.0383 13.5933 54.7983 12.58 54.7983 11.42C54.7983 10.26 55.0316 9.24667 55.4983 8.38C55.9783 7.51333 56.6449 6.84667 57.4983 6.38C58.3516 5.91333 59.3316 5.68 60.4383 5.68C61.5183 5.68 62.4783 5.90667 63.3183 6.36C64.1583 6.81333 64.8116 7.46 65.2783 8.3C65.7583 9.14 65.9983 10.12 65.9983 11.24ZM62.4983 10.34C62.4983 9.75333 62.2983 9.28667 61.8983 8.94C61.4983 8.59333 60.9983 8.42 60.3983 8.42C59.8249 8.42 59.3383 8.58667 58.9383 8.92C58.5516 9.25333 58.3116 9.72667 58.2183 10.34H62.4983ZM72.8825 17.16C71.7892 17.16 70.8025 16.9267 69.9225 16.46C69.0558 15.9933 68.3692 15.3267 67.8625 14.46C67.3692 13.5933 67.1225 12.58 67.1225 11.42C67.1225 10.2733 67.3758 9.26667 67.8825 8.4C68.3892 7.52 69.0825 6.84667 69.9625 6.38C70.8425 5.91333 71.8292 5.68 72.9225 5.68C74.0158 5.68 75.0025 5.91333 75.8825 6.38C76.7625 6.84667 77.4558 7.52 77.9625 8.4C78.4692 9.26667 78.7225 10.2733 78.7225 11.42C78.7225 12.5667 78.4625 13.58 77.9425 14.46C77.4358 15.3267 76.7358 15.9933 75.8425 16.46C74.9625 16.9267 73.9758 17.16 72.8825 17.16ZM72.8825 14.2C73.5358 14.2 74.0892 13.96 74.5425 13.48C75.0092 13 75.2425 12.3133 75.2425 11.42C75.2425 10.5267 75.0158 9.84 74.5625 9.36C74.1225 8.88 73.5758 8.64 72.9225 8.64C72.2558 8.64 71.7025 8.88 71.2625 9.36C70.8225 9.82667 70.6025 10.5133 70.6025 11.42C70.6025 12.3133 70.8158 13 71.2425 13.48C71.6825 13.96 72.2292 14.2 72.8825 14.2ZM83.9569 7.42C84.2902 6.9 84.7502 6.48 85.3369 6.16C85.9235 5.84 86.6102 5.68 87.3969 5.68C88.3169 5.68 89.1502 5.91333 89.8969 6.38C90.6435 6.84667 91.2302 7.51333 91.6569 8.38C92.0969 9.24667 92.3169 10.2533 92.3169 11.4C92.3169 12.5467 92.0969 13.56 91.6569 14.44C91.2302 15.3067 90.6435 15.98 89.8969 16.46C89.1502 16.9267 88.3169 17.16 87.3969 17.16C86.6235 17.16 85.9369 17 85.3369 16.68C84.7502 16.36 84.2902 15.9467 83.9569 15.44V22.32H80.5369V5.84H83.9569V7.42ZM88.8369 11.4C88.8369 10.5467 88.5969 9.88 88.1169 9.4C87.6502 8.90667 87.0702 8.66 86.3769 8.66C85.6969 8.66 85.1169 8.90667 84.6369 9.4C84.1702 9.89333 83.9369 10.5667 83.9369 11.42C83.9369 12.2733 84.1702 12.9467 84.6369 13.44C85.1169 13.9333 85.6969 14.18 86.3769 14.18C87.0569 14.18 87.6369 13.9333 88.1169 13.44C88.5969 12.9333 88.8369 12.2533 88.8369 11.4Z" fill="#0F1F1C"/>
<path d="M10.56 7.4C10.3067 6.93333 9.94 6.58 9.46 6.34C8.99333 6.08667 8.44 5.96 7.8 5.96C6.69333 5.96 5.80667 6.32667 5.14 7.06C4.47333 7.78 4.14 8.74667 4.14 9.96C4.14 11.2533 4.48667 12.2667 5.18 13C5.88667 13.72 6.85333 14.08 8.08 14.08C8.92 14.08 9.62667 13.8667 10.2 13.44C10.7867 13.0133 11.2133 12.4 11.48 11.6H7.14V9.08H14.58V12.26C14.3267 13.1133 13.8933 13.9067 13.28 14.64C12.68 15.3733 11.9133 15.9667 10.98 16.42C10.0467 16.8733 8.99333 17.1 7.82 17.1C6.43333 17.1 5.19333 16.8 4.1 16.2C3.02 15.5867 2.17333 14.74 1.56 13.66C0.96 12.58 0.66 11.3467 0.66 9.96C0.66 8.57333 0.96 7.34 1.56 6.26C2.17333 5.16667 3.02 4.32 4.1 3.72C5.18 3.10667 6.41333 2.8 7.8 2.8C9.48 2.8 10.8933 3.20667 12.04 4.02C13.2 4.83333 13.9667 5.96 14.34 7.4H10.56ZM21.5544 17.16C20.461 17.16 19.4744 16.9267 18.5944 16.46C17.7277 15.9933 17.041 15.3267 16.5344 14.46C16.041 13.5933 15.7944 12.58 15.7944 11.42C15.7944 10.2733 16.0477 9.26667 16.5544 8.4C17.061 7.52 17.7544 6.84667 18.6344 6.38C19.5144 5.91333 20.501 5.68 21.5944 5.68C22.6877 5.68 23.6744 5.91333 24.5544 6.38C25.4344 6.84667 26.1277 7.52 26.6344 8.4C27.141 9.26667 27.3944 10.2733 27.3944 11.42C27.3944 12.5667 27.1344 13.58 26.6144 14.46C26.1077 15.3267 25.4077 15.9933 24.5144 16.46C23.6344 16.9267 22.6477 17.16 21.5544 17.16ZM21.5544 14.2C22.2077 14.2 22.761 13.96 23.2144 13.48C23.681 13 23.9144 12.3133 23.9144 11.42C23.9144 10.5267 23.6877 9.84 23.2344 9.36C22.7944 8.88 22.2477 8.64 21.5944 8.64C20.9277 8.64 20.3744 8.88 19.9344 9.36C19.4944 9.82667 19.2744 10.5133 19.2744 11.42C19.2744 12.3133 19.4877 13 19.9144 13.48C20.3544 13.96 20.901 14.2 21.5544 14.2ZM39.3088 2.96V5.7H35.5888V17H32.1688V5.7H28.4488V2.96H39.3088ZM44.4452 7.7C44.8452 7.08667 45.3452 6.60667 45.9452 6.26C46.5452 5.9 47.2118 5.72 47.9452 5.72V9.34H47.0052C46.1518 9.34 45.5118 9.52667 45.0852 9.9C44.6585 10.26 44.4452 10.9 44.4452 11.82V17H41.0252V5.84H44.4452V7.7ZM51.2998 4.68C50.6998 4.68 50.2065 4.50667 49.8198 4.16C49.4465 3.8 49.2598 3.36 49.2598 2.84C49.2598 2.30667 49.4465 1.86667 49.8198 1.52C50.2065 1.16 50.6998 0.979999 51.2998 0.979999C51.8865 0.979999 52.3665 1.16 52.7398 1.52C53.1265 1.86667 53.3198 2.30667 53.3198 2.84C53.3198 3.36 53.1265 3.8 52.7398 4.16C52.3665 4.50667 51.8865 4.68 51.2998 4.68ZM52.9998 5.84V17H49.5798V5.84H52.9998ZM65.9983 11.24C65.9983 11.56 65.9783 11.8933 65.9383 12.24H58.1983C58.2516 12.9333 58.4716 13.4667 58.8583 13.84C59.2583 14.2 59.7449 14.38 60.3183 14.38C61.1716 14.38 61.7649 14.02 62.0983 13.3H65.7383C65.5516 14.0333 65.2116 14.6933 64.7183 15.28C64.2383 15.8667 63.6316 16.3267 62.8983 16.66C62.1649 16.9933 61.3449 17.16 60.4383 17.16C59.3449 17.16 58.3716 16.9267 57.5183 16.46C56.6649 15.9933 55.9983 15.3267 55.5183 14.46C55.0383 13.5933 54.7983 12.58 54.7983 11.42C54.7983 10.26 55.0316 9.24667 55.4983 8.38C55.9783 7.51333 56.6449 6.84667 57.4983 6.38C58.3516 5.91333 59.3316 5.68 60.4383 5.68C61.5183 5.68 62.4783 5.90667 63.3183 6.36C64.1583 6.81333 64.8116 7.46 65.2783 8.3C65.7583 9.14 65.9983 10.12 65.9983 11.24ZM62.4983 10.34C62.4983 9.75333 62.2983 9.28667 61.8983 8.94C61.4983 8.59333 60.9983 8.42 60.3983 8.42C59.8249 8.42 59.3383 8.58667 58.9383 8.92C58.5516 9.25333 58.3116 9.72667 58.2183 10.34H62.4983ZM72.8825 17.16C71.7892 17.16 70.8025 16.9267 69.9225 16.46C69.0558 15.9933 68.3692 15.3267 67.8625 14.46C67.3692 13.5933 67.1225 12.58 67.1225 11.42C67.1225 10.2733 67.3758 9.26667 67.8825 8.4C68.3892 7.52 69.0825 6.84667 69.9625 6.38C70.8425 5.91333 71.8292 5.68 72.9225 5.68C74.0158 5.68 75.0025 5.91333 75.8825 6.38C76.7625 6.84667 77.4558 7.52 77.9625 8.4C78.4692 9.26667 78.7225 10.2733 78.7225 11.42C78.7225 12.5667 78.4625 13.58 77.9425 14.46C77.4358 15.3267 76.7358 15.9933 75.8425 16.46C74.9625 16.9267 73.9758 17.16 72.8825 17.16ZM72.8825 14.2C73.5358 14.2 74.0892 13.96 74.5425 13.48C75.0092 13 75.2425 12.3133 75.2425 11.42C75.2425 10.5267 75.0158 9.84 74.5625 9.36C74.1225 8.88 73.5758 8.64 72.9225 8.64C72.2558 8.64 71.7025 8.88 71.2625 9.36C70.8225 9.82667 70.6025 10.5133 70.6025 11.42C70.6025 12.3133 70.8158 13 71.2425 13.48C71.6825 13.96 72.2292 14.2 72.8825 14.2ZM83.9569 7.42C84.2902 6.9 84.7502 6.48 85.3369 6.16C85.9235 5.84 86.6102 5.68 87.3969 5.68C88.3169 5.68 89.1502 5.91333 89.8969 6.38C90.6435 6.84667 91.2302 7.51333 91.6569 8.38C92.0969 9.24667 92.3169 10.2533 92.3169 11.4C92.3169 12.5467 92.0969 13.56 91.6569 14.44C91.2302 15.3067 90.6435 15.98 89.8969 16.46C89.1502 16.9267 88.3169 17.16 87.3969 17.16C86.6235 17.16 85.9369 17 85.3369 16.68C84.7502 16.36 84.2902 15.9467 83.9569 15.44V22.32H80.5369V5.84H83.9569V7.42ZM88.8369 11.4C88.8369 10.5467 88.5969 9.88 88.1169 9.4C87.6502 8.90667 87.0702 8.66 86.3769 8.66C85.6969 8.66 85.1169 8.90667 84.6369 9.4C84.1702 9.89333 83.9369 10.5667 83.9369 11.42C83.9369 12.2733 84.1702 12.9467 84.6369 13.44C85.1169 13.9333 85.6969 14.18 86.3769 14.18C87.0569 14.18 87.6369 13.9333 88.1169 13.44C88.5969 12.9333 88.8369 12.2533 88.8369 11.4Z" fill="#FF7C4E"/>
</svg>
